<?xml version="1.0" encoding="iso-8859-1"?>
<!-- Generator: Adobe Illustrator 18.0.0, SVG Export Plug-In . SVG Version: 6.00 Build 0)  -->
<!DOCTYPE svg PUBLIC "-//W3C//DTD SVG 1.1//EN" "http://www.w3.org/Graphics/SVG/1.1/DTD/svg11.dtd">
<svg version="1.1" id="Capa_1" xmlns="http://www.w3.org/2000/svg" xmlns:xlink="http://www.w3.org/1999/xlink" x="0px" y="0px"
	 viewBox="0 0 291.651 291.651" style="enable-background:new 0 0 291.651 291.651;" xml:space="preserve">
<path fill="#ffffff" d="M277.842,187.4l-10.829-6.142c4.242-6.337,8.165-13.002,8.529-13.64c-0.04-0.025-0.09-0.045-0.13-0.07
	c9.949-18.443,16.238-38.776,16.238-60.583c0-47.655-38.766-86.422-86.416-86.422c-22.245,0-43.529,8.773-59.409,23.797
	c-15.88-15.023-37.159-23.797-59.404-23.797C38.767,20.543,0,59.31,0,106.965c0,96.17,121.585,164.143,145.825,164.143
	c10.461,0,39.057-12.684,68.184-34.804c-5.091-3.563-8.365-9.123-8.693-15.397l-1.081-20.533
	c-24.042,20.702-49.133,34.099-58.463,36.288c-19.867-4.483-111.464-59.191-111.464-129.696c0-28.735,23.38-52.114,52.114-52.114
	c18.448,0,35.15,9.516,44.684,25.445l9.149,15.296c1.172,1.959,3.287,3.159,5.57,3.159c2.283,0,4.399-1.2,5.571-3.159l9.15-15.296
	c9.535-15.93,26.236-25.445,44.688-25.445c28.73,0,52.109,23.379,52.109,52.114c0,15.959-4.936,31.093-12.561,45.097l-0.005-0.005
	c-0.347,0.636-4.049,7.014-7.644,12.252c-11.407-6.472-11.813-7.047-14.492-7.047c-4.447,0-8.064,3.736-7.827,8.251l2.876,54.741
	c0.299,5.711,6.436,9.19,11.49,6.519l48.456-25.628C283.118,198.25,283.202,190.435,277.842,187.4z"/>
</svg>
